<!-- Generated by IcoMoon.io -->
<svg version="1.1" xmlns="http://www.w3.org/2000/svg" width="32" height="32" viewBox="0 0 32 32">
<title>pointclick</title>
<path d="M10.75 3.188v2.813h1.5v-5.625h-1.5v2.813z"></path>
<path d="M4.088 3.35c-0.25 0.263-0.462 0.525-0.462 0.6 0 0.162 3.775 3.925 3.95 3.925 0.063 0 0.35-0.225 0.613-0.5l0.488-0.5-1.987-2c-1.1-1.1-2.025-2-2.063-2s-0.287 0.212-0.537 0.475z"></path>
<path d="M16.063 5.125l-1.988 2 1.1 1.125 2.037-2.025 2.038-2.037-0.525-0.525c-0.288-0.3-0.563-0.538-0.6-0.538s-0.962 0.9-2.063 2z"></path>
<path d="M1 10.75v0.75h5.75v-1.5h-5.75v0.75z"></path>
<path d="M11.813 10.075c-1.813 0.438-2.688 1.787-2.137 3.325 0.137 0.363 3.137 5.663 3.787 6.688 0.188 0.275 0.175 0.275-0.688 0.262-0.738-0.012-0.95 0.038-1.45 0.325-1.175 0.688-1.637 2.050-1.088 3.212 0.537 1.137 0.912 1.375 5.387 3.363l4.15 1.85 0.738 1.262c0.7 1.2 0.762 1.262 1.15 1.262 0.575 0 8.95-4.8 9.175-5.25 0.113-0.25 0.087-0.95-0.163-3.488l-0.313-3.163-1.45-2.525c-0.813-1.375-1.663-2.713-1.913-2.963-0.85-0.875-2.113-0.975-3.5-0.287-0.762 0.387-0.938 0.438-1.2 0.313-0.525-0.238-1.038-0.15-1.775 0.275-0.663 0.375-0.75 0.4-1.15 0.262-0.538-0.188-0.875-0.125-1.738 0.35-0.363 0.2-0.675 0.35-0.688 0.325-0.025-0.025-0.587-1-1.25-2.162-0.675-1.175-1.35-2.263-1.5-2.412-0.525-0.588-1.7-0.988-2.387-0.825zM12.988 11.9c0.15 0.162 0.9 1.387 1.675 2.725 1.75 3.025 1.7 2.988 3.125 2.212l1.025-0.563 0.3 0.238c0.4 0.325 0.563 0.3 1.538-0.262 0.988-0.575 1-0.575 1.413-0.3 0.4 0.262 0.762 0.163 1.738-0.425 0.587-0.35 0.9-0.45 1.375-0.463 0.725 0 0.538-0.225 2.363 2.9l1.337 2.313 0.262 2.675c0.15 1.475 0.25 2.7 0.225 2.725-0.025 0.012-1.512 0.863-3.3 1.887s-3.425 1.962-3.637 2.087l-0.4 0.238-0.563-0.988-0.575-0.988-3.663-1.637c-2.012-0.9-3.988-1.775-4.375-1.95-0.488-0.212-0.813-0.462-1.025-0.788-0.412-0.6-0.412-0.875 0.012-1.313 0.412-0.438 0.988-0.462 2.162-0.1 0.925 0.288 1.625 0.325 1.85 0.1 0.362-0.363 0.125-0.9-2.088-4.688-2.662-4.6-2.8-4.863-2.7-5.162 0.225-0.713 1.425-1 1.925-0.475z"></path>
<path d="M16.25 10.75v0.75h5.75v-1.5h-5.75v0.75z"></path>
<path d="M5.063 16.125l-1.987 2 0.487 0.5c0.263 0.275 0.55 0.5 0.625 0.5 0.063 0 1.025-0.9 2.125-2l1.988-2-0.487-0.5c-0.263-0.275-0.55-0.5-0.625-0.5-0.063 0-1.025 0.9-2.125 2z"></path>
</svg>
