<!-- Generated by IcoMoon.io -->
<svg version="1.1" xmlns="http://www.w3.org/2000/svg" width="32" height="32" viewBox="0 0 32 32">
<title>point</title>
<path d="M11.813 8.063c-1.813 0.438-2.688 1.813-2.125 3.313 0.125 0.375 3.125 5.688 3.75 6.688 0.188 0.313 0.188 0.313-0.688 0.313-0.688-0.063-0.938 0-1.438 0.313-1.188 0.688-1.625 2.063-1.063 3.188 0.5 1.125 0.875 1.375 5.375 3.375l4.125 1.875 0.75 1.25c0.688 1.188 0.75 1.25 1.188 1.25 0.563 0 8.938-4.813 9.125-5.25 0.125-0.25 0.125-0.938-0.125-3.5l-0.313-3.125-1.438-2.563c-0.813-1.375-1.688-2.688-1.938-2.938-0.875-0.875-2.125-1-3.5-0.313-0.75 0.375-0.938 0.438-1.188 0.313-0.563-0.25-1.063-0.125-1.813 0.313-0.625 0.375-0.75 0.375-1.125 0.25-0.563-0.188-0.875-0.125-1.75 0.313-0.375 0.25-0.688 0.375-0.688 0.375 0-0.063-0.563-1-1.25-2.188s-1.313-2.25-1.5-2.438c-0.5-0.563-1.688-0.938-2.375-0.813zM13 9.875c0.125 0.188 0.875 1.438 1.688 2.75 1.75 3 1.688 3 3.125 2.188l1-0.563 0.313 0.25c0.375 0.313 0.563 0.313 1.5-0.25 1-0.563 1-0.563 1.438-0.313 0.375 0.25 0.75 0.188 1.75-0.438 0.563-0.313 0.875-0.438 1.375-0.438 0.688 0 0.5-0.25 2.375 2.875l1.313 2.313 0.25 2.688c0.188 1.5 0.25 2.688 0.25 2.75-0.063 0-1.5 0.875-3.313 1.875s-3.438 1.938-3.625 2.063l-0.438 0.25-0.563-1-0.563-0.938-3.625-1.688c-2.063-0.875-4-1.75-4.375-1.938-0.5-0.188-0.813-0.438-1.063-0.75-0.375-0.625-0.375-0.875 0-1.313 0.438-0.438 1-0.5 2.188-0.125 0.938 0.313 1.625 0.313 1.875 0.125 0.313-0.375 0.125-0.938-2.125-4.688-2.625-4.625-2.813-4.875-2.688-5.188 0.25-0.688 1.438-1 1.938-0.5z"></path>
</svg>
